<svg xmlns="http://www.w3.org/2000/svg" xmlns:xlink="http://www.w3.org/1999/xlink" width="794" zoomAndPan="magnify" viewBox="0 0 594.95996 842.24997" height="1123" preserveAspectRatio="xMidYMid meet" version="1.0"><defs><clipPath id="be724c7d5c"><path d="M 0.246094 0 L 594.675781 0 L 594.675781 841.5 L 0.246094 841.5 Z M 0.246094 0 " clip-rule="nonzero"/></clipPath><clipPath id="379cc428aa"><path d="M 155 524.488281 L 442.171875 524.488281 L 442.171875 590.453125 L 155 590.453125 Z M 155 524.488281 " clip-rule="nonzero"/></clipPath><clipPath id="bc5a15f7d4"><path d="M 293 251.015625 L 304 251.015625 L 304 295 L 293 295 Z M 293 251.015625 " clip-rule="nonzero"/></clipPath><clipPath id="34d31b4040"><path d="M 120.769531 422 L 165 422 L 165 432 L 120.769531 432 Z M 120.769531 422 " clip-rule="nonzero"/></clipPath><clipPath id="e18c167f61"><path d="M 430 423 L 474.453125 423 L 474.453125 434 L 430 434 Z M 430 423 " clip-rule="nonzero"/></clipPath></defs><g clip-path="url(#be724c7d5c)"><path fill="#ffffff" d="M 0.246094 0 L 595.214844 0 L 595.214844 841.5 L 0.246094 841.5 Z M 0.246094 0 " fill-opacity="1" fill-rule="nonzero"/><path fill="#ffffff" d="M 0.246094 0 L 595.214844 0 L 595.214844 841.5 L 0.246094 841.5 Z M 0.246094 0 " fill-opacity="1" fill-rule="nonzero"/></g><path fill="#000000" d="M 207.769531 524.691406 L 389.40625 524.691406 L 389.40625 422.972656 C 389.40625 372.84375 348.664062 332.0625 298.585938 332.0625 C 248.507812 332.0625 207.769531 372.84375 207.769531 422.972656 Z M 394.253906 534.402344 L 202.917969 534.402344 C 200.242188 534.402344 198.070312 532.226562 198.070312 529.546875 L 198.070312 422.972656 C 198.070312 409.390625 200.726562 396.214844 205.96875 383.804688 C 211.035156 371.824219 218.28125 361.0625 227.511719 351.824219 C 236.738281 342.582031 247.488281 335.332031 259.460938 330.261719 C 271.855469 325.011719 285.019531 322.351562 298.585938 322.351562 C 312.15625 322.351562 325.320312 325.011719 337.714844 330.261719 C 349.683594 335.332031 360.433594 342.582031 369.664062 351.824219 C 378.894531 361.0625 386.140625 371.824219 391.203125 383.804688 C 396.445312 396.214844 399.105469 409.390625 399.105469 422.972656 L 399.105469 529.546875 C 399.105469 532.226562 396.933594 534.402344 394.253906 534.402344 " fill-opacity="1" fill-rule="nonzero"/><g clip-path="url(#379cc428aa)"><path fill="#000000" d="M 166.246094 580.742188 L 430.925781 580.742188 L 418.820312 534.402344 L 178.355469 534.402344 Z M 437.207031 590.453125 L 159.964844 590.453125 C 158.464844 590.453125 157.046875 589.757812 156.128906 588.566406 C 155.210938 587.375 154.894531 585.824219 155.273438 584.371094 L 169.917969 528.320312 C 170.476562 526.183594 172.402344 524.691406 174.609375 524.691406 L 422.5625 524.691406 C 424.769531 524.691406 426.699219 526.183594 427.257812 528.320312 L 441.898438 584.371094 C 442.277344 585.824219 441.964844 587.375 441.046875 588.566406 C 440.128906 589.757812 438.710938 590.453125 437.207031 590.453125 " fill-opacity="1" fill-rule="nonzero"/></g><g clip-path="url(#bc5a15f7d4)"><path fill="#000000" d="M 298.585938 294.929688 C 295.910156 294.929688 293.738281 292.753906 293.738281 290.074219 L 293.738281 255.871094 C 293.738281 253.1875 295.910156 251.015625 298.585938 251.015625 C 301.265625 251.015625 303.4375 253.1875 303.4375 255.871094 L 303.4375 290.074219 C 303.4375 292.753906 301.265625 294.929688 298.585938 294.929688 " fill-opacity="1" fill-rule="nonzero"/></g><path fill="#000000" d="M 229.636719 312.898438 C 227.960938 312.898438 226.332031 312.027344 225.433594 310.472656 L 208.351562 280.851562 C 207.011719 278.53125 207.804688 275.5625 210.125 274.21875 C 212.445312 272.878906 215.410156 273.675781 216.75 275.996094 L 233.832031 305.617188 C 235.171875 307.9375 234.378906 310.90625 232.058594 312.246094 C 231.296875 312.6875 230.460938 312.898438 229.636719 312.898438 " fill-opacity="1" fill-rule="nonzero"/><path fill="#000000" d="M 178.890625 362.976562 C 178.066406 362.976562 177.234375 362.765625 176.46875 362.324219 L 146.878906 345.222656 C 144.5625 343.882812 143.765625 340.914062 145.105469 338.589844 C 146.445312 336.269531 149.410156 335.472656 151.730469 336.8125 L 181.320312 353.914062 C 183.640625 355.257812 184.433594 358.226562 183.09375 360.546875 C 182.195312 362.105469 180.566406 362.976562 178.890625 362.976562 " fill-opacity="1" fill-rule="nonzero"/><g clip-path="url(#34d31b4040)"><path fill="#000000" d="M 159.964844 431.738281 L 125.800781 431.738281 C 123.121094 431.738281 120.949219 429.5625 120.949219 426.882812 C 120.949219 424.203125 123.121094 422.027344 125.800781 422.027344 L 159.964844 422.027344 C 162.644531 422.027344 164.816406 424.203125 164.816406 426.882812 C 164.816406 429.5625 162.644531 431.738281 159.964844 431.738281 " fill-opacity="1" fill-rule="nonzero"/></g><g clip-path="url(#e18c167f61)"><path fill="#000000" d="M 469.421875 433.691406 L 435.257812 433.691406 C 432.578125 433.691406 430.40625 431.519531 430.40625 428.835938 C 430.40625 426.15625 432.578125 423.980469 435.257812 423.980469 L 469.421875 423.980469 C 472.101562 423.980469 474.273438 426.15625 474.273438 428.835938 C 474.273438 431.519531 472.101562 433.691406 469.421875 433.691406 " fill-opacity="1" fill-rule="nonzero"/></g><path fill="#000000" d="M 417.304688 364.667969 C 415.632812 364.667969 414 363.796875 413.101562 362.238281 C 411.765625 359.917969 412.558594 356.949219 414.875 355.609375 L 444.46875 338.507812 C 446.785156 337.167969 449.75 337.964844 451.089844 340.285156 C 452.429688 342.605469 451.636719 345.574219 449.316406 346.917969 L 419.726562 364.015625 C 418.964844 364.457031 418.128906 364.667969 417.304688 364.667969 " fill-opacity="1" fill-rule="nonzero"/><path fill="#000000" d="M 367.273438 313.878906 C 366.449219 313.878906 365.617188 313.667969 364.851562 313.226562 C 362.535156 311.882812 361.738281 308.917969 363.078125 306.59375 L 380.160156 276.972656 C 381.5 274.652344 384.46875 273.855469 386.785156 275.195312 C 389.109375 276.535156 389.902344 279.507812 388.5625 281.828125 L 371.476562 311.449219 C 370.578125 313.007812 368.949219 313.878906 367.273438 313.878906 " fill-opacity="1" fill-rule="nonzero"/><path fill="#000000" d="M 312.621094 534.402344 C 309.941406 534.402344 307.773438 532.226562 307.773438 529.546875 L 307.773438 466.898438 C 307.773438 465.15625 308.703125 463.546875 310.21875 462.683594 C 317.539062 458.496094 322.089844 450.660156 322.089844 442.234375 C 322.089844 429.261719 311.546875 418.707031 298.585938 418.707031 C 285.628906 418.707031 275.082031 429.261719 275.082031 442.234375 C 275.082031 450.660156 279.632812 458.496094 286.957031 462.683594 C 288.46875 463.546875 289.402344 465.15625 289.402344 466.898438 L 289.402344 529.546875 C 289.402344 532.226562 287.230469 534.402344 284.550781 534.402344 C 281.875 534.402344 279.703125 532.226562 279.703125 529.546875 L 279.703125 469.570312 C 270.804688 463.398438 265.382812 453.171875 265.382812 442.234375 C 265.382812 423.90625 280.277344 408.996094 298.585938 408.996094 C 316.894531 408.996094 331.789062 423.90625 331.789062 442.234375 C 331.789062 453.171875 326.367188 463.398438 317.46875 469.570312 L 317.46875 529.546875 C 317.46875 532.226562 315.300781 534.402344 312.621094 534.402344 " fill-opacity="1" fill-rule="nonzero"/></svg>