<svg xmlns="http://www.w3.org/2000/svg" xmlns:xlink="http://www.w3.org/1999/xlink" width="794" zoomAndPan="magnify" viewBox="0 0 594.95996 842.24997" height="1123" preserveAspectRatio="xMidYMid meet" version="1.0"><defs><clipPath id="d1c36d4b95"><path d="M 0.246094 0 L 594.675781 0 L 594.675781 841.5 L 0.246094 841.5 Z M 0.246094 0 " clip-rule="nonzero"/></clipPath><clipPath id="dbe4eee480"><path d="M 147 287 L 448 287 L 448 629.25 L 147 629.25 Z M 147 287 " clip-rule="nonzero"/></clipPath><clipPath id="65339e207d"><path d="M 215 211.871094 L 380 211.871094 L 380 360 L 215 360 Z M 215 211.871094 " clip-rule="nonzero"/></clipPath></defs><g clip-path="url(#d1c36d4b95)"><path fill="#ffffff" d="M 0.246094 0 L 595.214844 0 L 595.214844 841.5 L 0.246094 841.5 Z M 0.246094 0 " fill-opacity="1" fill-rule="nonzero"/><path fill="#ffffff" d="M 0.246094 0 L 595.214844 0 L 595.214844 841.5 L 0.246094 841.5 Z M 0.246094 0 " fill-opacity="1" fill-rule="nonzero"/></g><path fill="#42a5f5" d="M 353.390625 505.703125 L 312.53125 505.703125 C 308.375 505.703125 305.195312 502.277344 305.195312 498.363281 C 305.195312 494.203125 308.375 491.023438 312.53125 491.023438 L 353.390625 491.023438 C 357.550781 491.023438 360.730469 494.203125 360.730469 498.363281 C 360.730469 502.277344 357.550781 505.703125 353.390625 505.703125 Z M 353.390625 505.703125 " fill-opacity="1" fill-rule="evenodd"/><path fill="#42a5f5" d="M 353.390625 535.058594 L 312.53125 535.058594 C 308.375 535.058594 305.195312 531.878906 305.195312 527.71875 C 305.195312 523.804688 308.375 520.378906 312.53125 520.378906 L 353.390625 520.378906 C 357.550781 520.378906 360.730469 523.804688 360.730469 527.71875 C 360.730469 531.878906 357.550781 535.058594 353.390625 535.058594 Z M 353.390625 535.058594 " fill-opacity="1" fill-rule="evenodd"/><path fill="#42a5f5" d="M 275.347656 540.929688 L 236.203125 540.929688 C 232.042969 540.929688 228.863281 537.75 228.863281 533.589844 L 228.863281 492.246094 C 228.863281 488.085938 232.042969 484.90625 236.203125 484.90625 L 275.347656 484.90625 C 279.503906 484.90625 282.683594 488.085938 282.683594 492.246094 L 282.683594 533.589844 C 282.683594 537.75 279.503906 540.929688 275.347656 540.929688 Z M 243.539062 526.253906 L 268.007812 526.253906 L 268.007812 499.585938 L 243.539062 499.585938 Z M 243.539062 526.253906 " fill-opacity="1" fill-rule="evenodd"/><path fill="#42a5f5" d="M 297.609375 464.109375 C 295.652344 464.109375 293.941406 463.375 292.472656 462.152344 C 273.632812 443.316406 254.0625 423.742188 254.0625 402.457031 C 254.0625 388.511719 265.558594 377.015625 279.503906 377.015625 C 288.066406 377.015625 293.695312 380.195312 297.609375 384.597656 C 301.769531 380.195312 307.394531 377.015625 315.714844 377.015625 C 329.902344 377.015625 341.402344 388.511719 341.402344 402.457031 C 341.402344 423.742188 321.828125 443.070312 302.992188 462.152344 C 301.523438 463.375 299.566406 464.109375 297.609375 464.109375 Z M 279.503906 391.691406 C 273.632812 391.691406 268.742188 396.585938 268.742188 402.457031 C 268.742188 415.914062 282.683594 431.328125 297.609375 446.496094 C 312.777344 431.328125 326.722656 415.914062 326.722656 402.457031 C 326.722656 396.585938 321.828125 391.691406 315.714844 391.691406 C 311.066406 391.691406 308.375 392.917969 304.214844 401.234375 C 302.992188 403.679688 300.546875 405.394531 297.609375 405.394531 C 294.917969 405.394531 292.472656 403.679688 291.25 401.234375 C 287.089844 392.917969 284.398438 391.691406 279.503906 391.691406 Z M 279.503906 391.691406 " fill-opacity="1" fill-rule="evenodd"/><path fill="#474748" d="M 297.609375 338.359375 C 282.441406 338.359375 270.207031 325.882812 270.207031 310.710938 C 270.207031 295.542969 282.441406 283.3125 297.609375 283.3125 C 312.777344 283.3125 325.253906 295.542969 325.253906 310.710938 C 325.253906 325.882812 312.777344 338.359375 297.609375 338.359375 Z M 297.609375 297.992188 C 290.757812 297.992188 284.886719 303.863281 284.886719 310.710938 C 284.886719 317.808594 290.757812 323.679688 297.609375 323.679688 C 304.703125 323.679688 310.574219 317.808594 310.574219 310.710938 C 310.574219 303.863281 304.703125 297.992188 297.609375 297.992188 Z M 297.609375 297.992188 " fill-opacity="1" fill-rule="evenodd"/><g clip-path="url(#dbe4eee480)"><path fill="#474748" d="M 408.191406 629.25 L 187.269531 629.25 C 165.25 629.25 147.390625 611.636719 147.390625 589.617188 L 147.390625 327.105469 C 147.390625 305.085938 165.25 287.226562 187.269531 287.226562 L 223.234375 287.226562 C 227.148438 287.226562 230.574219 290.652344 230.574219 294.566406 C 230.574219 298.726562 227.148438 301.90625 223.234375 301.90625 L 187.269531 301.90625 C 173.324219 301.90625 162.070312 313.160156 162.070312 327.105469 L 162.070312 589.617188 C 162.070312 603.316406 173.324219 614.570312 187.269531 614.570312 L 408.191406 614.570312 C 422.136719 614.570312 433.148438 603.316406 433.148438 589.617188 L 433.148438 327.105469 C 433.148438 313.160156 422.136719 301.90625 408.191406 301.90625 L 372.230469 301.90625 C 368.070312 301.90625 364.890625 298.726562 364.890625 294.566406 C 364.890625 290.652344 368.070312 287.226562 372.230469 287.226562 L 408.191406 287.226562 C 430.210938 287.226562 447.828125 305.085938 447.828125 327.105469 L 447.828125 589.617188 C 447.828125 611.636719 430.210938 629.25 408.191406 629.25 Z M 408.191406 629.25 " fill-opacity="1" fill-rule="evenodd"/></g><path fill="#474748" d="M 379.078125 586.191406 L 216.382812 586.191406 C 199.015625 586.191406 185.070312 572.246094 185.070312 555.121094 L 185.070312 361.601562 C 185.070312 344.476562 199.015625 330.53125 216.382812 330.53125 L 223.234375 330.53125 C 227.148438 330.53125 230.574219 333.710938 230.574219 337.871094 C 230.574219 341.785156 227.148438 345.207031 223.234375 345.207031 L 216.382812 345.207031 C 207.332031 345.207031 199.746094 352.546875 199.746094 361.601562 L 199.746094 555.121094 C 199.746094 564.171875 207.332031 571.511719 216.382812 571.511719 L 379.078125 571.511719 C 388.132812 571.511719 395.46875 564.171875 395.46875 555.121094 L 395.46875 361.601562 C 395.46875 352.546875 388.132812 345.207031 379.078125 345.207031 L 372.230469 345.207031 C 368.070312 345.207031 364.890625 342.027344 364.890625 337.871094 C 364.890625 333.710938 368.070312 330.53125 372.230469 330.53125 L 379.078125 330.53125 C 396.203125 330.53125 410.148438 344.476562 410.148438 361.601562 L 410.148438 555.121094 C 410.148438 572.246094 396.203125 586.191406 379.078125 586.191406 Z M 379.078125 586.191406 " fill-opacity="1" fill-rule="evenodd"/><g clip-path="url(#65339e207d)"><path fill="#474748" d="M 360.972656 359.644531 L 234.488281 359.644531 C 224.214844 359.644531 215.894531 351.324219 215.894531 341.050781 L 215.894531 284.046875 C 215.894531 273.769531 224.214844 265.453125 234.488281 265.453125 L 263.113281 265.453125 C 260.910156 260.558594 259.6875 255.175781 259.6875 249.792969 C 259.6875 229 276.8125 211.871094 297.609375 211.871094 C 318.648438 211.871094 335.53125 229 335.53125 249.792969 C 335.53125 255.175781 334.550781 260.558594 332.351562 265.453125 L 360.972656 265.453125 C 371.25 265.453125 379.566406 273.769531 379.566406 284.046875 L 379.566406 341.050781 C 379.566406 351.324219 371.25 359.644531 360.972656 359.644531 Z M 234.488281 280.132812 C 232.285156 280.132812 230.574219 281.84375 230.574219 284.046875 L 230.574219 341.050781 C 230.574219 343.25 232.285156 344.964844 234.488281 344.964844 L 360.972656 344.964844 C 363.175781 344.964844 364.890625 343.25 364.890625 341.050781 L 364.890625 284.046875 C 364.890625 281.84375 363.175781 280.132812 360.972656 280.132812 L 317.914062 280.132812 C 314.980469 280.132812 312.289062 278.175781 311.066406 275.238281 C 310.085938 272.546875 310.820312 269.121094 313.023438 267.164062 C 318.160156 262.761719 320.851562 256.398438 320.851562 249.792969 C 320.851562 237.070312 310.574219 226.550781 297.609375 226.550781 C 284.886719 226.550781 274.367188 237.070312 274.367188 249.792969 C 274.367188 256.398438 277.304688 262.761719 282.195312 267.164062 C 284.644531 269.121094 285.375 272.546875 284.152344 275.238281 C 283.175781 278.175781 280.484375 280.132812 277.304688 280.132812 Z M 234.488281 280.132812 " fill-opacity="1" fill-rule="evenodd"/></g></svg>