<svg xmlns="http://www.w3.org/2000/svg" xmlns:xlink="http://www.w3.org/1999/xlink" width="794" zoomAndPan="magnify" viewBox="0 0 594.95996 842.24997" height="1123" preserveAspectRatio="xMidYMid meet" version="1.0"><defs><clipPath id="31a610da96"><path d="M 0.246094 0 L 594.675781 0 L 594.675781 841.5 L 0.246094 841.5 Z M 0.246094 0 " clip-rule="nonzero"/></clipPath></defs><g clip-path="url(#31a610da96)"><path fill="#ffffff" d="M 0.246094 0 L 595.214844 0 L 595.214844 841.5 L 0.246094 841.5 Z M 0.246094 0 " fill-opacity="1" fill-rule="nonzero"/><path fill="#ffffff" d="M 0.246094 0 L 595.214844 0 L 595.214844 841.5 L 0.246094 841.5 Z M 0.246094 0 " fill-opacity="1" fill-rule="nonzero"/></g><path fill="#020203" d="M 232.175781 292.136719 C 240.136719 280.980469 252.644531 272.132812 266.476562 270.828125 C 278.058594 269.613281 291.226562 274.75 299.566406 282.691406 C 317.328125 268.433594 340.21875 265.03125 357.816406 282.351562 C 360.933594 285.417969 363.601562 288.902344 366.546875 292.132812 C 373.742188 293.382812 380.070312 294.546875 386.445312 298.40625 C 404.359375 309.246094 412.539062 334.96875 401.183594 353.34375 C 404.300781 360.320312 406.84375 366.992188 406.636719 374.785156 C 406.113281 394.636719 389.273438 414.957031 368.335938 414.332031 C 362.878906 431.269531 349.691406 442.105469 331.816406 444.339844 C 319.664062 444.523438 308.699219 441.503906 299.566406 433.132812 C 276.105469 453.296875 241.289062 445.472656 230.753906 415.726562 C 223.367188 414.40625 216.832031 412.933594 210.28125 409.050781 C 191.128906 397.707031 185.871094 372.078125 197.019531 353.34375 C 188.335938 339.230469 189.640625 320.152344 200.316406 307.394531 C 209.347656 296.609375 218.578125 293.304688 232.175781 292.136719 Z M 266.476562 280.832031 C 253.300781 282.734375 247.863281 290.695312 238.953125 299.109375 L 239.046875 299.433594 C 244.539062 317.476562 263.3125 315.242188 265.121094 320.386719 C 266.054688 323.042969 264.335938 326.164062 261.648438 326.894531 C 249.289062 330.242188 234.007812 313.179688 229.675781 302.601562 C 209.40625 304.148438 195.589844 325.914062 203.730469 344.535156 C 208.722656 341.378906 226.792969 332.128906 231.410156 339.742188 C 235.59375 346.644531 224.765625 346.976562 221.835938 347.484375 C 193.589844 352.40625 192.023438 398.527344 229.125 405.371094 C 228.933594 400.707031 230.652344 377.085938 239.859375 387.222656 C 242.164062 389.765625 239.671875 395.492188 239.328125 398.46875 C 235.75 429.386719 270.628906 444.738281 293.1875 425.34375 C 284.53125 415.839844 262.390625 397.21875 256.507812 388.050781 C 243.515625 367.804688 257.9375 341.914062 281.835938 343.289062 C 288.847656 343.6875 293.714844 346.417969 299.570312 349.972656 C 317.71875 332.921875 349.921875 349.746094 347.320312 374.050781 C 345.945312 385.269531 340.226562 390.21875 332.761719 398.03125 L 316.230469 415.335938 C 312.984375 418.667969 309.476562 421.839844 306.425781 425.34375 C 328.082031 444.113281 362.265625 428.777344 359.925781 401.125 C 359.4375 395.320312 354.890625 388.625 362.628906 385.941406 C 370.175781 388.261719 369.789062 398.003906 369.714844 404.53125 C 404.226562 398.894531 404.167969 353.632812 377.382812 346.9375 C 373.5 345.96875 367.914062 346.964844 367.0625 341.9375 C 364.996094 329.777344 389.167969 340.863281 394.035156 344.535156 C 401.773438 325.472656 387.941406 303.898438 367.324219 302.601562 C 363.6875 312.949219 346.449219 330.253906 335.457031 326.3125 C 332.917969 325.402344 331.058594 322.597656 332.257812 319.957031 C 334.800781 314.355469 350.28125 317.902344 358.441406 299.109375 C 348.828125 282.648438 329.804688 275.179688 312.789062 285.367188 C 309.859375 287.121094 306.820312 289.308594 304.84375 292.132812 L 304.859375 318.644531 C 304.859375 322.707031 306.195312 332.191406 303.160156 335.367188 C 299.648438 339.046875 295.082031 335.027344 294.65625 331.058594 C 294.28125 327.585938 294.707031 323.238281 294.707031 319.667969 L 294.699219 292.132812 C 287.863281 284.855469 276.714844 279.222656 266.476562 280.832031 Z M 316.988281 353.34375 C 306.003906 354.597656 303.78125 362.117188 299.921875 362.835938 C 297.273438 363.332031 293.636719 358.976562 291.785156 357.46875 C 275.894531 344.515625 253.535156 364.007812 264.679688 381.726562 C 269.285156 389.050781 280.214844 396.835938 286.164062 404.535156 C 291.234375 407.855469 294.824219 413.332031 299.566406 417.132812 C 307.089844 409.636719 329.40625 388.519531 334.492188 380.460938 C 342.335938 368.039062 331.007812 352.007812 316.988281 353.34375 Z M 316.988281 353.34375 " fill-opacity="1" fill-rule="nonzero"/><path fill="#020203" d="M 155.472656 423.183594 C 145.144531 406.605469 140.863281 395.785156 142.421875 374.992188 C 142.832031 369.554688 147.636719 351.835938 135.460938 353.761719 C 130.621094 354.53125 128.449219 359.863281 126.6875 363.792969 C 112.535156 395.390625 113.515625 433.121094 136.039062 460.746094 C 141.519531 467.464844 148.121094 473.441406 154.246094 479.578125 L 187.800781 513.175781 C 193.78125 519.253906 202.375 526.171875 206.261719 533.671875 C 208.601562 538.199219 214.054688 561.976562 211.371094 565.484375 C 209.699219 567.667969 206.03125 568.210938 203.921875 566.363281 C 199.304688 562.320312 202.171875 543.988281 195.226562 535.375 C 193.394531 533.097656 191.152344 531.058594 189.09375 528.992188 L 147.871094 487.375 C 141.03125 480.472656 133.636719 473.902344 127.414062 466.429688 C 102.4375 436.445312 102.257812 395.375 117.113281 360.839844 C 121.085938 351.605469 125.222656 344.648438 136.316406 343.800781 C 155.375 344.757812 153.609375 361.132812 152.398438 374.703125 C 151.101562 389.191406 153.570312 401.875 161.488281 414.332031 C 175.386719 404.152344 183.859375 412.15625 193.273438 421.386719 C 204.71875 432.609375 215.804688 444.15625 227.359375 455.273438 C 238.257812 456.75 248.835938 459.550781 258.109375 465.703125 C 287.128906 484.945312 292.46875 522.292969 273.519531 550.621094 C 270.878906 554.570312 261.773438 566.464844 257.21875 567.21875 C 253.371094 567.855469 250.597656 563.269531 252.191406 559.914062 C 253.207031 557.769531 259.355469 551.984375 261.308594 549.59375 C 270.707031 538.101562 275.976562 524.746094 274.394531 509.75 C 272.03125 487.367188 252.71875 468.242188 230.386719 465.703125 C 218.027344 464.296875 218.363281 460.757812 209.386719 451.628906 L 187.695312 429.871094 C 185.011719 427.222656 182.542969 424.136719 179.570312 421.824219 C 171.257812 415.355469 160.039062 425.613281 164.40625 434.671875 C 166.355469 438.714844 187.476562 458.960938 191.394531 462.832031 C 194.371094 465.777344 206.785156 474.753906 202.863281 479.796875 C 196.992188 487.34375 183.738281 468.289062 178.023438 463.6875 L 177.675781 463.410156 C 168.34375 451.0625 147.777344 441.578125 155.472656 423.183594 Z M 155.472656 423.183594 " fill-opacity="1" fill-rule="nonzero"/><path fill="#020203" d="M 436.832031 414.332031 C 447.609375 399.242188 446.527344 382.070312 444.0625 364.816406 C 442.628906 354.792969 449.050781 345.921875 459.164062 344.535156 C 479.671875 339.289062 488.5 383.648438 489.734375 396.5625 C 492.636719 427.03125 483.402344 454.542969 461.832031 475.972656 L 409.972656 527.03125 C 406.117188 530.828125 401.871094 534.550781 400.0625 539.816406 C 398.914062 543.152344 397.148438 575.960938 387.285156 566.421875 C 384.378906 563.613281 386.511719 556.839844 387.148438 553.402344 C 391.882812 527.78125 392.449219 530.222656 410.597656 512.125 L 452.355469 471.078125 C 470.417969 453.480469 479.882812 435.363281 480.386719 409.039062 C 480.554688 400.1875 473.890625 353.878906 461.660156 354.09375 C 451.296875 354.273438 453.921875 364.855469 454.757812 370.753906 C 457.125 387.484375 454.589844 409.898438 442.875 423.183594 C 449.578125 440.585938 430.550781 452.0625 419.617188 463.410156 C 416.757812 466.351562 402.515625 481.558594 399.683594 482.191406 C 395.855469 483.050781 392.070312 478.65625 394.144531 475.152344 C 397.332031 469.769531 415.695312 452.820312 420.753906 447.898438 C 425.042969 443.722656 435.410156 436.550781 434.347656 429.554688 C 433.292969 422.605469 426.105469 417.929688 419.460938 421.035156 C 415.011719 423.113281 388.433594 451.375 384.011719 455.984375 C 372.546875 467.933594 378.386719 464.605469 363.441406 467.070312 C 322.242188 473.871094 310.863281 522.316406 338.039062 551.394531 C 340.164062 553.671875 353.265625 566.054688 341.53125 567.101562 C 337.101562 567.496094 333.175781 561.714844 330.671875 558.8125 C 321.011719 547.609375 314.929688 535.164062 313.246094 520.40625 C 310.015625 492.128906 329.289062 464.378906 357.042969 457.941406 C 361.203125 456.976562 365.476562 456.585938 369.714844 456.105469 C 373.21875 452.945312 376.414062 449.265625 379.75 445.910156 L 401.285156 424.320312 C 412.761719 412.800781 419.664062 403.898438 436.832031 414.332031 Z M 436.832031 414.332031 " fill-opacity="1" fill-rule="nonzero"/></svg>