<svg xmlns="http://www.w3.org/2000/svg" xmlns:xlink="http://www.w3.org/1999/xlink" width="794" zoomAndPan="magnify" viewBox="0 0 594.95996 842.24997" height="1123" preserveAspectRatio="xMidYMid meet" version="1.0"><defs><clipPath id="9c1e55b704"><path d="M 0.246094 0 L 594.675781 0 L 594.675781 841.5 L 0.246094 841.5 Z M 0.246094 0 " clip-rule="nonzero"/></clipPath><clipPath id="1f4dd720c1"><path d="M 104.03125 245.132812 L 491.433594 245.132812 L 491.433594 595.820312 L 104.03125 595.820312 Z M 104.03125 245.132812 " clip-rule="nonzero"/></clipPath></defs><g clip-path="url(#9c1e55b704)"><path fill="#ffffff" d="M 0.246094 0 L 595.214844 0 L 595.214844 841.5 L 0.246094 841.5 Z M 0.246094 0 " fill-opacity="1" fill-rule="nonzero"/><path fill="#ffffff" d="M 0.246094 0 L 595.214844 0 L 595.214844 841.5 L 0.246094 841.5 Z M 0.246094 0 " fill-opacity="1" fill-rule="nonzero"/></g><path fill="#000000" d="M 255.378906 403.453125 L 276.152344 403.453125 L 276.152344 424.304688 C 276.152344 427.828125 279.078125 430.75 282.605469 430.75 L 312.859375 430.75 C 316.386719 430.75 319.3125 427.828125 319.3125 424.304688 L 319.3125 403.453125 L 340.1875 403.453125 C 343.714844 403.453125 346.640625 400.53125 346.640625 397.007812 L 346.640625 366.789062 C 346.640625 363.261719 343.714844 360.34375 340.1875 360.34375 L 319.3125 360.34375 L 319.3125 339.59375 C 319.3125 335.964844 316.386719 333.144531 312.859375 333.144531 L 282.605469 333.144531 C 279.078125 333.144531 276.152344 335.964844 276.152344 339.59375 L 276.152344 360.34375 L 255.378906 360.34375 C 251.75 360.34375 248.925781 363.261719 248.925781 366.789062 L 248.925781 397.007812 C 248.925781 400.53125 251.75 403.453125 255.378906 403.453125 Z M 261.832031 373.234375 L 282.605469 373.234375 C 286.136719 373.234375 289.0625 370.3125 289.0625 366.789062 L 289.0625 346.039062 L 306.40625 346.039062 L 306.40625 366.789062 C 306.40625 370.3125 309.328125 373.234375 312.859375 373.234375 L 333.734375 373.234375 L 333.734375 390.558594 L 312.859375 390.558594 C 309.328125 390.558594 306.40625 393.480469 306.40625 397.007812 L 306.40625 417.855469 L 289.0625 417.855469 L 289.0625 397.007812 C 289.0625 393.480469 286.136719 390.558594 282.605469 390.558594 L 261.832031 390.558594 Z M 261.832031 373.234375 " fill-opacity="1" fill-rule="nonzero"/><g clip-path="url(#1f4dd720c1)"><path fill="#000000" d="M 484.894531 357.523438 L 397.96875 357.523438 L 397.96875 301.015625 L 405.332031 301.015625 C 408.859375 301.015625 411.785156 298.09375 411.785156 294.566406 L 411.785156 251.054688 C 411.785156 247.527344 408.859375 244.609375 405.332031 244.609375 L 190.136719 244.609375 C 186.605469 244.609375 183.683594 247.527344 183.683594 251.054688 L 183.683594 294.566406 C 183.683594 298.09375 186.605469 301.015625 190.136719 301.015625 L 197.496094 301.015625 L 197.496094 357.523438 L 110.574219 357.523438 C 107.042969 357.523438 104.117188 360.34375 104.117188 363.96875 L 104.117188 589.898438 C 104.117188 593.421875 107.042969 596.34375 110.574219 596.34375 L 484.894531 596.34375 C 488.421875 596.34375 491.347656 593.421875 491.347656 589.898438 L 491.347656 363.96875 C 491.347656 360.34375 488.421875 357.523438 484.894531 357.523438 Z M 117.027344 370.414062 L 197.496094 370.414062 L 197.496094 583.449219 L 117.027344 583.449219 Z M 210.40625 363.96875 L 210.40625 301.015625 L 221.902344 301.015625 C 225.429688 301.015625 228.355469 298.09375 228.355469 294.566406 C 228.355469 291.042969 225.429688 288.121094 221.902344 288.121094 L 196.589844 288.121094 L 196.589844 257.5 L 398.875 257.5 L 398.875 288.121094 L 246.203125 288.121094 C 242.675781 288.121094 239.75 291.042969 239.75 294.566406 C 239.75 298.09375 242.675781 301.015625 246.203125 301.015625 L 385.0625 301.015625 L 385.0625 583.449219 L 360.558594 583.449219 L 360.558594 477.285156 C 360.558594 473.660156 357.632812 470.839844 354.101562 470.839844 L 241.363281 470.839844 C 237.832031 470.839844 234.910156 473.660156 234.910156 477.285156 L 234.910156 583.449219 L 210.40625 583.449219 Z M 247.816406 483.730469 L 291.277344 483.730469 L 291.277344 583.449219 L 247.816406 583.449219 Z M 304.1875 583.449219 L 304.1875 483.730469 L 347.648438 483.730469 L 347.648438 583.449219 Z M 478.441406 583.449219 L 397.96875 583.449219 L 397.96875 370.414062 L 478.441406 370.414062 Z M 478.441406 583.449219 " fill-opacity="1" fill-rule="nonzero"/></g><path fill="#000000" d="M 417.734375 441.023438 L 458.675781 441.023438 C 462.304688 441.023438 465.128906 438.203125 465.128906 434.578125 L 465.128906 393.683594 C 465.128906 390.15625 462.304688 387.234375 458.675781 387.234375 L 417.734375 387.234375 C 414.203125 387.234375 411.28125 390.15625 411.28125 393.683594 L 411.28125 434.578125 C 411.28125 438.203125 414.203125 441.023438 417.734375 441.023438 Z M 424.1875 400.128906 L 452.222656 400.128906 L 452.222656 428.132812 L 424.1875 428.132812 Z M 424.1875 400.128906 " fill-opacity="1" fill-rule="nonzero"/><path fill="#000000" d="M 417.734375 503.777344 L 458.675781 503.777344 C 462.304688 503.777344 465.128906 500.957031 465.128906 497.328125 L 465.128906 456.433594 C 465.128906 452.910156 462.304688 449.988281 458.675781 449.988281 L 417.734375 449.988281 C 414.203125 449.988281 411.28125 452.910156 411.28125 456.433594 L 411.28125 497.328125 C 411.28125 500.957031 414.203125 503.777344 417.734375 503.777344 Z M 424.1875 462.882812 L 452.222656 462.882812 L 452.222656 490.882812 L 424.1875 490.882812 Z M 424.1875 462.882812 " fill-opacity="1" fill-rule="nonzero"/><path fill="#000000" d="M 417.734375 566.527344 L 458.675781 566.527344 C 462.304688 566.527344 465.128906 563.707031 465.128906 560.082031 L 465.128906 519.1875 C 465.128906 515.660156 462.304688 512.742188 458.675781 512.742188 L 417.734375 512.742188 C 414.203125 512.742188 411.28125 515.660156 411.28125 519.1875 L 411.28125 560.082031 C 411.28125 563.707031 414.203125 566.527344 417.734375 566.527344 Z M 424.1875 525.632812 L 452.222656 525.632812 L 452.222656 553.636719 L 424.1875 553.636719 Z M 424.1875 525.632812 " fill-opacity="1" fill-rule="nonzero"/><path fill="#000000" d="M 177.734375 387.234375 L 136.792969 387.234375 C 133.160156 387.234375 130.335938 390.15625 130.335938 393.683594 L 130.335938 434.578125 C 130.335938 438.203125 133.160156 441.023438 136.792969 441.023438 L 177.734375 441.023438 C 181.261719 441.023438 184.1875 438.203125 184.1875 434.578125 L 184.1875 393.683594 C 184.1875 390.15625 181.261719 387.234375 177.734375 387.234375 Z M 171.277344 428.132812 L 143.246094 428.132812 L 143.246094 400.128906 L 171.277344 400.128906 Z M 171.277344 428.132812 " fill-opacity="1" fill-rule="nonzero"/><path fill="#000000" d="M 177.734375 449.988281 L 136.792969 449.988281 C 133.160156 449.988281 130.335938 452.910156 130.335938 456.433594 L 130.335938 497.328125 C 130.335938 500.957031 133.160156 503.777344 136.792969 503.777344 L 177.734375 503.777344 C 181.261719 503.777344 184.1875 500.957031 184.1875 497.328125 L 184.1875 456.433594 C 184.1875 452.910156 181.261719 449.988281 177.734375 449.988281 Z M 171.277344 490.882812 L 143.246094 490.882812 L 143.246094 462.882812 L 171.277344 462.882812 Z M 171.277344 490.882812 " fill-opacity="1" fill-rule="nonzero"/><path fill="#000000" d="M 177.734375 512.742188 L 136.792969 512.742188 C 133.160156 512.742188 130.335938 515.660156 130.335938 519.1875 L 130.335938 560.082031 C 130.335938 563.707031 133.160156 566.527344 136.792969 566.527344 L 177.734375 566.527344 C 181.261719 566.527344 184.1875 563.707031 184.1875 560.082031 L 184.1875 519.1875 C 184.1875 515.660156 181.261719 512.742188 177.734375 512.742188 Z M 171.277344 553.636719 L 143.246094 553.636719 L 143.246094 525.632812 L 171.277344 525.632812 Z M 171.277344 553.636719 " fill-opacity="1" fill-rule="nonzero"/></svg>