<svg xmlns="http://www.w3.org/2000/svg" xmlns:xlink="http://www.w3.org/1999/xlink" width="794" zoomAndPan="magnify" viewBox="0 0 594.95996 842.24997" height="1123" preserveAspectRatio="xMidYMid meet" version="1.0"><defs><clipPath id="d250eca427"><path d="M 0.246094 0 L 594.675781 0 L 594.675781 841.5 L 0.246094 841.5 Z M 0.246094 0 " clip-rule="nonzero"/></clipPath><clipPath id="6653ae4123"><path d="M 171 251.308594 L 456 251.308594 L 456 544 L 171 544 Z M 171 251.308594 " clip-rule="nonzero"/></clipPath></defs><g clip-path="url(#d250eca427)"><path fill="#ffffff" d="M 0.246094 0 L 595.214844 0 L 595.214844 841.5 L 0.246094 841.5 Z M 0.246094 0 " fill-opacity="1" fill-rule="nonzero"/><path fill="#ffffff" d="M 0.246094 0 L 595.214844 0 L 595.214844 841.5 L 0.246094 841.5 Z M 0.246094 0 " fill-opacity="1" fill-rule="nonzero"/></g><path fill="#000000" d="M 241.433594 443.929688 C 244.472656 442.582031 247.105469 440.675781 249.335938 438.214844 C 253.125 441.113281 257.28125 443.328125 261.800781 444.855469 C 274.363281 449.679688 292.03125 447.441406 295.085938 432.230469 C 296.15625 445.523438 313.203125 448.214844 321.226562 439.558594 L 321.121094 440.3125 C 322.699219 440.550781 324.28125 440.59375 325.871094 440.433594 C 327.460938 440.277344 329.007812 439.925781 330.507812 439.382812 C 332.011719 438.839844 333.421875 438.121094 334.746094 437.226562 C 336.066406 436.332031 337.261719 435.285156 338.320312 434.09375 C 352.371094 435.5625 364.449219 427.023438 374.691406 417.910156 C 376.839844 416.179688 378.796875 414.253906 380.558594 412.128906 C 382.320312 410.007812 383.855469 407.730469 385.160156 405.300781 C 386.46875 402.871094 387.519531 400.332031 388.316406 397.691406 C 389.117188 395.050781 389.644531 392.355469 389.902344 389.605469 C 392.761719 352.507812 347.835938 333.578125 322.113281 359.859375 C 317.230469 349.558594 306.621094 356.121094 304.449219 364.746094 C 303.734375 367.128906 303.492188 369.558594 303.722656 372.039062 C 303.953125 374.515625 304.640625 376.859375 305.785156 379.070312 C 305.183594 380.382812 304.652344 381.726562 304.195312 383.097656 C 292.742188 380.699219 283.757812 373.519531 273.175781 370.796875 C 270.328125 370.332031 255.652344 368.441406 245.941406 377.621094 C 244.960938 378.691406 244.054688 379.824219 243.226562 381.019531 C 242.402344 382.214844 241.660156 383.464844 241.003906 384.761719 C 240.34375 386.058594 239.78125 387.394531 239.308594 388.769531 C 238.832031 390.144531 238.457031 391.546875 238.175781 392.972656 C 237.894531 394.398438 237.710938 395.839844 237.625 397.292969 C 237.539062 398.742188 237.554688 400.195312 237.671875 401.644531 C 237.785156 403.09375 237.996094 404.53125 238.308594 405.953125 C 238.617188 407.371094 239.027344 408.765625 239.527344 410.128906 C 221.675781 409.691406 222.347656 449.886719 241.433594 443.929688 Z M 326.90625 362.585938 C 327.730469 361.773438 328.59375 361.007812 329.496094 360.28125 C 330.398438 359.558594 331.335938 358.882812 332.304688 358.253906 C 333.277344 357.628906 334.277344 357.050781 335.308594 356.523438 C 336.339844 356 337.394531 355.527344 338.472656 355.109375 C 339.550781 354.691406 340.644531 354.328125 341.761719 354.023438 C 342.878906 353.71875 344.003906 353.46875 345.144531 353.28125 C 346.285156 353.089844 347.433594 352.957031 348.585938 352.882812 C 349.742188 352.8125 350.894531 352.796875 352.050781 352.84375 C 353.207031 352.886719 354.359375 352.992188 355.503906 353.152344 C 356.648438 353.316406 357.78125 353.535156 358.902344 353.816406 C 360.027344 354.09375 361.132812 354.429688 362.21875 354.820312 C 363.308594 355.210938 364.375 355.65625 365.417969 356.15625 C 366.457031 356.65625 367.472656 357.210938 368.460938 357.8125 C 369.445312 358.417969 370.398438 359.070312 371.320312 359.773438 C 372.238281 360.472656 373.121094 361.222656 373.964844 362.011719 C 374.808594 362.804688 375.609375 363.636719 376.367188 364.511719 C 377.125 365.382812 377.839844 366.292969 378.503906 367.242188 C 379.171875 368.1875 379.785156 369.164062 380.351562 370.175781 C 380.917969 371.183594 381.429688 372.21875 381.890625 373.28125 C 382.351562 374.34375 382.757812 375.425781 383.105469 376.53125 C 383.457031 377.632812 383.75 378.75 383.984375 379.882812 C 384.222656 381.019531 384.398438 382.160156 384.519531 383.3125 C 384.636719 384.460938 384.699219 385.617188 384.699219 386.773438 C 384.699219 387.933594 384.644531 389.085938 384.527344 390.238281 C 384.410156 391.390625 384.234375 392.535156 384.003906 393.667969 C 383.769531 394.800781 383.480469 395.921875 383.132812 397.023438 C 382.785156 398.128906 382.382812 399.210938 381.925781 400.273438 C 381.46875 401.339844 380.957031 402.375 380.394531 403.386719 C 379.832031 404.398438 379.21875 405.375 378.554688 406.324219 C 377.890625 407.273438 377.179688 408.183594 376.425781 409.058594 C 375.667969 409.933594 374.867188 410.769531 374.027344 411.5625 C 373.183594 412.359375 372.304688 413.105469 371.386719 413.8125 L 362.152344 421.277344 C 361.320312 421.96875 360.460938 422.621094 359.566406 423.230469 C 358.671875 423.835938 357.75 424.402344 356.800781 424.921875 C 355.851562 425.441406 354.878906 425.914062 353.886719 426.335938 C 352.890625 426.761719 351.878906 427.140625 350.847656 427.464844 C 349.816406 427.792969 348.769531 428.070312 347.714844 428.292969 C 346.65625 428.519531 345.589844 428.695312 344.515625 428.816406 C 343.441406 428.9375 342.363281 429.007812 341.28125 429.027344 C 340.199219 429.042969 339.121094 429.007812 338.042969 428.921875 C 336.964844 428.835938 335.894531 428.695312 334.828125 428.503906 C 333.765625 428.3125 332.710938 428.070312 331.671875 427.777344 C 330.628906 427.484375 329.605469 427.144531 328.597656 426.75 C 327.589844 426.359375 326.601562 425.917969 325.636719 425.429688 C 324.671875 424.941406 323.734375 424.40625 322.820312 423.828125 C 321.90625 423.25 321.023438 422.625 320.167969 421.960938 C 319.316406 421.296875 318.496094 420.589844 317.710938 419.847656 C 316.925781 419.101562 316.179688 418.320312 315.46875 417.503906 C 314.757812 416.6875 314.089844 415.839844 313.464844 414.957031 C 312.835938 414.074219 312.253906 413.164062 311.714844 412.226562 C 311.175781 411.289062 310.683594 410.324219 310.234375 409.339844 C 309.789062 408.351562 309.394531 407.347656 309.042969 406.324219 C 308.695312 405.296875 308.398438 404.257812 308.148438 403.203125 C 307.902344 402.152344 307.703125 401.085938 307.558594 400.015625 C 307.414062 398.941406 307.320312 397.863281 307.28125 396.78125 C 307.238281 395.703125 307.25 394.621094 307.3125 393.539062 C 307.378906 392.457031 307.492188 391.382812 307.660156 390.3125 C 307.828125 389.246094 308.046875 388.1875 308.320312 387.136719 C 308.589844 386.089844 308.910156 385.054688 309.28125 384.039062 C 309.648438 383.023438 310.070312 382.027344 310.535156 381.050781 C 311.003906 380.074219 311.515625 379.121094 312.074219 378.195312 C 312.632812 377.265625 313.234375 376.371094 313.882812 375.5 C 314.527344 374.632812 315.214844 373.796875 315.941406 372.996094 C 316.667969 372.195312 317.429688 371.429688 318.230469 370.703125 Z M 309.472656 366.3125 C 310.277344 363.441406 314.285156 356.8125 317.09375 361.546875 C 317.136719 361.976562 316.980469 362.269531 317.339844 362.527344 C 317.453125 363.0625 317.519531 363.5625 317.605469 364.074219 L 314.636719 366.851562 C 310.085938 371.148438 307.636719 377.210938 309.472656 366.3125 Z M 234.296875 437.328125 C 230.050781 430.730469 231.054688 411.921875 242.402344 416.074219 L 256.6875 423.621094 C 256.996094 423.773438 257.320312 423.859375 257.664062 423.886719 C 258.007812 423.910156 258.339844 423.871094 258.667969 423.765625 C 258.992188 423.65625 259.289062 423.496094 259.550781 423.273438 C 259.8125 423.050781 260.023438 422.789062 260.183594 422.484375 C 260.34375 422.183594 260.441406 421.859375 260.476562 421.519531 C 260.507812 421.175781 260.476562 420.839844 260.382812 420.511719 C 260.285156 420.183594 260.128906 419.882812 259.914062 419.613281 C 259.703125 419.34375 259.445312 419.125 259.144531 418.957031 L 245.75 411.886719 C 235.996094 386.75 253.171875 372.433594 272.277344 375.992188 C 278.953125 377.40625 281.925781 380.558594 289.167969 383.425781 C 293.625 385.3125 298.183594 386.898438 302.847656 388.1875 C 302.253906 391 301.984375 393.847656 302.042969 396.722656 C 302.097656 399.597656 302.480469 402.429688 303.1875 405.21875 C 303.890625 408.007812 304.902344 410.679688 306.21875 413.234375 C 307.539062 415.792969 309.125 418.167969 310.988281 420.359375 C 311.085938 420.503906 312.144531 421.683594 312.277344 421.8125 C 310.269531 423.265625 308.757812 425.121094 307.746094 427.382812 C 308.824219 426.554688 310.007812 425.921875 311.292969 425.476562 C 312.578125 425.035156 313.898438 424.808594 315.257812 424.792969 C 317.550781 426.820312 320.058594 428.535156 322.777344 429.941406 C 325.5 431.34375 328.347656 432.394531 331.328125 433.089844 C 329.203125 434.519531 326.863281 435.199219 324.304688 435.128906 C 324.59375 434.617188 324.851562 434.089844 325.078125 433.546875 C 324.105469 434.414062 323.257812 435.4375 321.863281 435.09375 L 321.703125 436.222656 C 319.316406 437.902344 316.6875 439.027344 313.824219 439.597656 C 298.613281 442.808594 295.925781 425.015625 303.425781 415.066406 C 301.589844 416.136719 300.019531 417.507812 298.707031 419.179688 C 297.394531 420.851562 296.441406 422.710938 295.839844 424.75 L 295.21875 424.75 C 295.019531 422.960938 294.675781 421.203125 294.1875 419.46875 C 291.582031 409.871094 280.140625 396.863281 276.757812 401.710938 C 276.566406 402.003906 276.441406 402.320312 276.378906 402.664062 C 276.3125 403.007812 276.320312 403.351562 276.390625 403.691406 C 276.464844 404.035156 276.597656 404.347656 276.796875 404.636719 C 276.996094 404.925781 277.242188 405.164062 277.535156 405.351562 C 279.414062 406.648438 281.117188 408.140625 282.652344 409.832031 C 284.183594 411.523438 285.5 413.371094 286.601562 415.367188 C 287.703125 417.367188 288.5625 419.46875 289.175781 421.667969 C 289.789062 423.867188 290.140625 426.105469 290.234375 428.386719 C 288.273438 452.570312 252.695312 439.183594 245.65625 427.28125 C 245.433594 427.019531 245.171875 426.808594 244.871094 426.648438 C 244.566406 426.488281 244.242188 426.390625 243.902344 426.355469 C 243.5625 426.324219 243.226562 426.355469 242.898438 426.449219 C 242.566406 426.546875 242.269531 426.703125 242 426.917969 C 241.734375 427.132812 241.515625 427.386719 241.347656 427.6875 C 241.179688 427.988281 241.074219 428.304688 241.03125 428.648438 C 240.988281 428.988281 241.007812 429.324219 241.097656 429.65625 C 241.183594 429.988281 241.332031 430.289062 241.539062 430.566406 C 242.730469 432.050781 244.007812 433.453125 245.375 434.777344 C 242.644531 437.539062 237.226562 442.046875 234.296875 437.328125 Z M 234.296875 437.328125 " fill-opacity="1" fill-rule="nonzero"/><path fill="#000000" d="M 361.457031 398.667969 L 364.683594 398.902344 C 364.410156 396.710938 363.503906 392.261719 364.894531 390.890625 C 366.074219 389.042969 371.328125 389.457031 373.828125 387.980469 C 374.265625 387.699219 374.671875 387.378906 375.050781 387.019531 C 375.429688 386.660156 375.769531 386.269531 376.074219 385.84375 C 376.375 385.421875 376.636719 384.972656 376.855469 384.5 C 377.074219 384.027344 377.246094 383.535156 377.371094 383.03125 C 377.496094 382.523438 377.570312 382.011719 377.597656 381.488281 C 377.625 380.96875 377.605469 380.449219 377.535156 379.933594 C 377.464844 379.417969 377.34375 378.914062 377.179688 378.417969 C 377.011719 377.925781 376.800781 377.453125 376.542969 376.996094 C 375.910156 389.941406 367.429688 381.449219 361.101562 387.550781 C 359.867188 389.023438 359.167969 390.714844 359.003906 392.625 C 358.660156 392.441406 358.332031 392.234375 358.011719 392.007812 C 357.695312 391.78125 357.394531 391.535156 357.109375 391.269531 C 356.820312 391.003906 356.554688 390.722656 356.304688 390.421875 C 356.054688 390.121094 355.824219 389.808594 355.613281 389.480469 C 355.402344 389.152344 355.214844 388.808594 355.046875 388.457031 C 354.878906 388.105469 354.734375 387.742188 354.613281 387.371094 C 354.492188 387 354.394531 386.621094 354.324219 386.238281 C 354.25 385.855469 354.203125 385.46875 354.179688 385.078125 C 354.152344 384.691406 354.15625 384.300781 354.179688 383.910156 C 354.207031 383.519531 354.253906 383.132812 354.332031 382.75 C 354.40625 382.367188 354.503906 381.992188 354.625 381.621094 C 354.75 381.25 354.894531 380.886719 355.0625 380.535156 C 355.230469 380.183594 355.421875 379.84375 355.632812 379.515625 C 355.84375 379.1875 356.074219 378.875 356.328125 378.578125 C 356.578125 378.277344 356.847656 377.996094 357.136719 377.734375 C 357.421875 377.46875 357.726562 377.222656 358.042969 377 C 346.3125 380.1875 349.328125 397.84375 361.457031 398.667969 Z M 361.457031 398.667969 " fill-opacity="1" fill-rule="nonzero"/><path fill="#000000" d="M 334.707031 399.238281 C 334.894531 399.28125 335.085938 399.304688 335.277344 399.304688 C 335.46875 399.304688 335.65625 399.285156 335.84375 399.246094 C 336.03125 399.207031 336.210938 399.148438 336.386719 399.066406 C 336.5625 398.988281 336.726562 398.894531 336.878906 398.78125 C 337.035156 398.664062 337.171875 398.535156 337.300781 398.390625 C 337.425781 398.25 337.535156 398.09375 337.628906 397.925781 C 337.722656 397.757812 337.796875 397.582031 337.851562 397.398438 C 337.90625 397.214844 337.941406 397.027344 337.957031 396.835938 C 337.972656 396.644531 337.964844 396.453125 337.941406 396.265625 C 337.914062 396.074219 337.867188 395.890625 337.804688 395.710938 C 337.738281 395.53125 337.652344 395.359375 337.550781 395.195312 C 337.449219 395.035156 337.332031 394.886719 337.195312 394.75 C 337.0625 394.613281 336.914062 394.492188 336.753906 394.386719 C 336.59375 394.28125 336.425781 394.195312 336.246094 394.125 C 336.070312 394.058594 335.882812 394.007812 335.695312 393.980469 C 335.503906 393.949219 335.316406 393.941406 335.125 393.953125 C 334.445312 394.015625 333.785156 393.941406 333.140625 393.722656 C 332.496094 393.503906 331.925781 393.160156 331.425781 392.699219 C 331.121094 392.355469 330.871094 391.976562 330.675781 391.558594 C 330.480469 391.140625 330.351562 390.707031 330.285156 390.253906 C 330.21875 389.796875 330.21875 389.34375 330.285156 388.886719 C 330.351562 388.433594 330.484375 388 330.679688 387.582031 C 330.820312 387.261719 330.894531 386.925781 330.902344 386.574219 C 330.910156 386.226562 330.851562 385.886719 330.722656 385.558594 C 330.597656 385.234375 330.410156 384.941406 330.167969 384.691406 C 329.925781 384.4375 329.644531 384.242188 329.320312 384.101562 C 329 383.960938 328.664062 383.886719 328.316406 383.882812 C 327.964844 383.875 327.625 383.9375 327.300781 384.066406 C 326.976562 384.195312 326.6875 384.382812 326.433594 384.628906 C 326.183594 384.871094 325.988281 385.15625 325.851562 385.476562 C 325.683594 385.847656 325.539062 386.226562 325.417969 386.613281 C 325.300781 387 325.203125 387.394531 325.132812 387.792969 C 325.0625 388.191406 325.015625 388.59375 324.992188 389 C 324.972656 389.40625 324.976562 389.808594 325.007812 390.214844 C 325.035156 390.617188 325.089844 391.019531 325.167969 391.417969 C 325.25 391.816406 325.355469 392.207031 325.480469 392.589844 C 325.609375 392.976562 325.761719 393.351562 325.9375 393.71875 C 326.113281 394.082031 326.3125 394.4375 326.53125 394.777344 C 326.75 395.117188 326.988281 395.445312 327.25 395.753906 C 327.507812 396.066406 327.789062 396.359375 328.085938 396.636719 C 328.382812 396.914062 328.695312 397.167969 329.023438 397.40625 C 329.351562 397.644531 329.695312 397.859375 330.050781 398.050781 C 330.40625 398.246094 330.773438 398.417969 331.148438 398.566406 C 331.527344 398.714844 331.914062 398.839844 332.304688 398.9375 C 332.699219 399.039062 333.09375 399.113281 333.496094 399.164062 C 333.898438 399.214844 334.304688 399.238281 334.707031 399.238281 Z M 334.707031 399.238281 " fill-opacity="1" fill-rule="nonzero"/><path fill="#000000" d="M 354.003906 421.351562 C 354.378906 421.433594 354.757812 421.429688 355.132812 421.347656 C 355.511719 421.265625 355.851562 421.109375 356.160156 420.878906 C 356.472656 420.648438 356.71875 420.363281 356.902344 420.023438 C 357.089844 419.683594 357.195312 419.324219 357.226562 418.9375 C 357.257812 418.554688 357.203125 418.179688 357.070312 417.816406 C 356.941406 417.453125 356.738281 417.136719 356.46875 416.859375 C 356.199219 416.585938 355.882812 416.378906 355.523438 416.238281 C 355.164062 416.101562 354.792969 416.042969 354.40625 416.0625 C 353.726562 416.128906 353.0625 416.050781 352.417969 415.832031 C 351.773438 415.613281 351.199219 415.273438 350.695312 414.8125 C 350.390625 414.46875 350.140625 414.089844 349.945312 413.671875 C 349.75 413.257812 349.621094 412.820312 349.554688 412.367188 C 349.488281 411.910156 349.488281 411.457031 349.554688 411.003906 C 349.621094 410.546875 349.75 410.113281 349.945312 409.695312 C 350.082031 409.375 350.152344 409.042969 350.15625 408.695312 C 350.164062 408.34375 350.101562 408.007812 349.972656 407.6875 C 349.84375 407.363281 349.660156 407.074219 349.417969 406.824219 C 349.175781 406.574219 348.894531 406.378906 348.578125 406.238281 C 348.257812 406.101562 347.925781 406.027344 347.578125 406.023438 C 347.230469 406.015625 346.894531 406.074219 346.570312 406.203125 C 346.246094 406.328125 345.957031 406.511719 345.707031 406.753906 C 345.453125 406.992188 345.257812 407.273438 345.117188 407.59375 C 344.949219 407.960938 344.804688 408.339844 344.6875 408.726562 C 344.566406 409.117188 344.46875 409.511719 344.398438 409.910156 C 344.328125 410.308594 344.28125 410.710938 344.261719 411.117188 C 344.238281 411.523438 344.246094 411.929688 344.273438 412.335938 C 344.304688 412.738281 344.359375 413.140625 344.441406 413.539062 C 344.519531 413.9375 344.625 414.328125 344.753906 414.714844 C 344.882812 415.097656 345.035156 415.472656 345.210938 415.839844 C 345.386719 416.207031 345.585938 416.558594 345.804688 416.902344 C 346.027344 417.242188 346.265625 417.566406 346.527344 417.878906 C 346.789062 418.191406 347.070312 418.484375 347.367188 418.757812 C 347.664062 419.035156 347.976562 419.292969 348.308594 419.527344 C 348.636719 419.765625 348.980469 419.980469 349.335938 420.171875 C 349.695312 420.367188 350.0625 420.539062 350.4375 420.683594 C 350.816406 420.832031 351.203125 420.957031 351.597656 421.054688 C 351.988281 421.15625 352.386719 421.230469 352.789062 421.277344 C 353.191406 421.328125 353.597656 421.351562 354.003906 421.351562 Z M 354.003906 421.351562 " fill-opacity="1" fill-rule="nonzero"/><path fill="#000000" d="M 330.269531 422.679688 C 330.636719 422.726562 330.996094 422.699219 331.351562 422.59375 C 331.707031 422.492188 332.027344 422.320312 332.3125 422.085938 C 332.59375 421.847656 332.820312 421.5625 332.984375 421.230469 C 333.148438 420.898438 333.238281 420.546875 333.257812 420.179688 C 333.273438 419.808594 333.21875 419.449219 333.085938 419.105469 C 332.953125 418.757812 332.757812 418.453125 332.5 418.191406 C 332.238281 417.925781 331.9375 417.726562 331.59375 417.589844 C 331.25 417.453125 330.894531 417.390625 330.523438 417.402344 C 329.714844 417.449219 328.933594 417.335938 328.171875 417.066406 C 327.410156 416.792969 326.730469 416.382812 326.136719 415.835938 C 325.46875 415.128906 324.988281 414.3125 324.699219 413.382812 C 324.40625 412.453125 324.335938 411.507812 324.488281 410.546875 C 324.539062 410.207031 324.527344 409.867188 324.449219 409.53125 C 324.371094 409.195312 324.230469 408.886719 324.03125 408.605469 C 323.832031 408.324219 323.585938 408.09375 323.292969 407.90625 C 323.003906 407.722656 322.6875 407.601562 322.347656 407.539062 C 322.007812 407.480469 321.667969 407.488281 321.332031 407.558594 C 320.996094 407.632812 320.683594 407.765625 320.398438 407.960938 C 320.117188 408.15625 319.878906 408.398438 319.6875 408.6875 C 319.5 408.976562 319.371094 409.289062 319.304688 409.628906 C 319.234375 410.027344 319.1875 410.425781 319.164062 410.832031 C 319.136719 411.234375 319.132812 411.640625 319.152344 412.042969 C 319.171875 412.449219 319.210938 412.851562 319.273438 413.25 C 319.335938 413.652344 319.417969 414.046875 319.523438 414.4375 C 319.628906 414.828125 319.757812 415.214844 319.902344 415.589844 C 320.050781 415.96875 320.21875 416.335938 320.40625 416.695312 C 320.59375 417.054688 320.800781 417.402344 321.023438 417.738281 C 321.25 418.074219 321.492188 418.398438 321.753906 418.707031 C 322.011719 419.015625 322.289062 419.3125 322.582031 419.589844 C 322.875 419.871094 323.179688 420.132812 323.503906 420.378906 C 323.824219 420.628906 324.15625 420.855469 324.503906 421.066406 C 324.847656 421.273438 325.207031 421.464844 325.570312 421.636719 C 325.9375 421.808594 326.3125 421.957031 326.695312 422.089844 C 327.078125 422.21875 327.46875 422.328125 327.863281 422.414062 C 328.257812 422.503906 328.65625 422.566406 329.058594 422.613281 C 329.460938 422.65625 329.863281 422.679688 330.269531 422.679688 Z M 330.269531 422.679688 " fill-opacity="1" fill-rule="nonzero"/><g clip-path="url(#6653ae4123)"><path fill="#000000" d="M 313.664062 260.144531 C 307.921875 260.148438 302.203125 260.5 296.503906 261.199219 C 290.804688 261.898438 285.171875 262.941406 279.601562 264.332031 C 274.027344 265.71875 268.5625 267.441406 263.199219 269.496094 C 257.839844 271.550781 252.621094 273.925781 247.550781 276.617188 L 247.550781 260.425781 C 247.550781 259.828125 247.492188 259.238281 247.375 258.65625 C 247.261719 258.074219 247.089844 257.503906 246.859375 256.957031 C 246.632812 256.40625 246.355469 255.882812 246.023438 255.390625 C 245.695312 254.894531 245.320312 254.4375 244.898438 254.015625 C 244.476562 253.59375 244.019531 253.21875 243.527344 252.886719 C 243.03125 252.558594 242.511719 252.277344 241.960938 252.050781 C 241.410156 251.824219 240.84375 251.652344 240.261719 251.535156 C 239.679688 251.417969 239.089844 251.359375 238.496094 251.363281 L 222.179688 251.363281 C 221.585938 251.363281 220.996094 251.421875 220.414062 251.539062 C 219.832031 251.660156 219.265625 251.832031 218.71875 252.058594 C 218.171875 252.289062 217.648438 252.566406 217.15625 252.898438 C 216.664062 253.230469 216.207031 253.605469 215.785156 254.027344 C 215.367188 254.445312 214.992188 254.902344 214.660156 255.398438 C 214.332031 255.890625 214.050781 256.414062 213.824219 256.960938 C 213.59375 257.511719 213.421875 258.074219 213.304688 258.660156 C 213.1875 259.242188 213.125 259.828125 213.125 260.425781 L 213.125 280.660156 C 213.128906 280.808594 213.105469 280.953125 213.050781 281.09375 C 212.996094 281.234375 212.917969 281.359375 212.8125 281.46875 C 212.710938 281.578125 212.589844 281.664062 212.453125 281.722656 C 212.3125 281.785156 212.167969 281.816406 212.019531 281.816406 L 191.859375 281.816406 C 191.265625 281.816406 190.675781 281.875 190.09375 281.992188 C 189.507812 282.109375 188.941406 282.28125 188.394531 282.507812 C 187.84375 282.734375 187.324219 283.015625 186.828125 283.34375 C 186.335938 283.675781 185.878906 284.050781 185.457031 284.472656 C 185.035156 284.894531 184.660156 285.351562 184.332031 285.84375 C 184 286.339844 183.722656 286.863281 183.492188 287.414062 C 183.265625 287.960938 183.09375 288.527344 182.980469 289.113281 C 182.863281 289.695312 182.804688 290.285156 182.804688 290.878906 L 182.804688 307.214844 C 182.808594 307.808594 182.867188 308.398438 182.984375 308.980469 C 183.101562 309.5625 183.273438 310.128906 183.503906 310.679688 C 183.730469 311.226562 184.011719 311.75 184.339844 312.242188 C 184.671875 312.738281 185.046875 313.195312 185.464844 313.613281 C 185.886719 314.035156 186.34375 314.410156 186.835938 314.742188 C 187.328125 315.070312 187.851562 315.351562 188.398438 315.578125 C 188.949219 315.808594 189.511719 315.980469 190.09375 316.097656 C 190.675781 316.214844 191.265625 316.277344 191.859375 316.277344 L 200.996094 316.277344 C 196.328125 322.390625 192.1875 328.839844 188.570312 335.628906 C 184.953125 342.414062 181.914062 349.453125 179.445312 356.738281 C 176.980469 364.023438 175.121094 371.460938 173.867188 379.050781 C 172.613281 386.640625 171.984375 394.28125 171.980469 401.976562 C 179.726562 590.070312 447.570312 590.132812 455.347656 401.972656 C 455.34375 399.652344 455.285156 397.335938 455.167969 395.015625 C 455.050781 392.699219 454.878906 390.386719 454.648438 388.078125 C 454.421875 385.769531 454.132812 383.464844 453.792969 381.171875 C 453.449219 378.875 453.050781 376.589844 452.597656 374.316406 C 452.144531 372.039062 451.632812 369.777344 451.070312 367.527344 C 450.503906 365.277344 449.882812 363.039062 449.210938 360.820312 C 448.535156 358.601562 447.808594 356.398438 447.023438 354.214844 C 446.242188 352.03125 445.40625 349.867188 444.519531 347.722656 C 443.628906 345.578125 442.691406 343.460938 441.699219 341.363281 C 440.707031 339.265625 439.664062 337.195312 438.570312 335.148438 C 437.476562 333.101562 436.332031 331.085938 435.140625 329.09375 C 433.949219 327.105469 432.707031 325.144531 431.417969 323.214844 C 430.128906 321.285156 428.796875 319.390625 427.414062 317.527344 C 426.035156 315.664062 424.609375 313.835938 423.136719 312.042969 C 421.664062 310.25 420.152344 308.492188 418.59375 306.773438 C 417.039062 305.054688 415.441406 303.375 413.800781 301.734375 C 412.164062 300.09375 410.484375 298.492188 408.765625 296.933594 C 407.050781 295.375 405.292969 293.859375 403.503906 292.386719 C 401.710938 290.914062 399.882812 289.488281 398.023438 288.105469 C 396.160156 286.722656 394.265625 285.386719 392.339844 284.097656 C 390.414062 282.808594 388.457031 281.566406 386.46875 280.371094 C 384.480469 279.179688 382.464844 278.035156 380.421875 276.9375 C 378.375 275.84375 376.308594 274.800781 374.210938 273.808594 C 372.117188 272.8125 370 271.875 367.859375 270.984375 C 365.71875 270.09375 363.554688 269.257812 361.375 268.476562 C 359.191406 267.691406 356.992188 266.964844 354.773438 266.289062 C 352.554688 265.613281 350.324219 264.992188 348.074219 264.425781 C 345.828125 263.863281 343.566406 263.351562 341.292969 262.898438 C 339.019531 262.441406 336.738281 262.042969 334.445312 261.699219 C 332.152344 261.359375 329.851562 261.074219 327.546875 260.84375 C 325.238281 260.613281 322.929688 260.441406 320.613281 260.324219 C 318.296875 260.207031 315.980469 260.148438 313.664062 260.144531 Z M 313.664062 535.902344 C 201.101562 536.332031 138.367188 402.25 211.03125 316.277344 C 211.949219 316.261719 213.089844 316.171875 213.125 317.386719 L 213.125 337.566406 C 213.125 338.160156 213.1875 338.75 213.304688 339.332031 C 213.421875 339.914062 213.59375 340.480469 213.824219 341.03125 C 214.050781 341.578125 214.332031 342.101562 214.660156 342.59375 C 214.992188 343.085938 215.367188 343.542969 215.785156 343.964844 C 216.207031 344.386719 216.664062 344.761719 217.15625 345.089844 C 217.648438 345.421875 218.171875 345.703125 218.71875 345.929688 C 219.265625 346.160156 219.832031 346.332031 220.414062 346.449219 C 220.996094 346.566406 221.585938 346.628906 222.179688 346.628906 L 238.496094 346.628906 C 239.089844 346.628906 239.679688 346.570312 240.261719 346.457031 C 240.84375 346.339844 241.410156 346.167969 241.960938 345.941406 C 242.511719 345.710938 243.03125 345.433594 243.527344 345.101562 C 244.019531 344.773438 244.476562 344.394531 244.898438 343.976562 C 245.320312 343.554688 245.695312 343.097656 246.023438 342.601562 C 246.355469 342.105469 246.632812 341.585938 246.859375 341.035156 C 247.089844 340.484375 247.261719 339.917969 247.375 339.335938 C 247.492188 338.75 247.550781 338.160156 247.550781 337.566406 L 247.550781 317.386719 C 247.550781 317.234375 247.582031 317.089844 247.644531 316.953125 C 247.703125 316.8125 247.789062 316.691406 247.898438 316.589844 C 248.007812 316.484375 248.132812 316.40625 248.273438 316.351562 C 248.410156 316.296875 248.558594 316.273438 248.707031 316.277344 L 268.921875 316.277344 C 269.515625 316.277344 270.101562 316.214844 270.683594 316.097656 C 271.265625 315.980469 271.832031 315.808594 272.378906 315.578125 C 272.929688 315.351562 273.449219 315.070312 273.941406 314.742188 C 274.4375 314.410156 274.894531 314.035156 275.3125 313.613281 C 275.734375 313.195312 276.109375 312.738281 276.4375 312.242188 C 276.769531 311.75 277.046875 311.226562 277.277344 310.679688 C 277.503906 310.128906 277.675781 309.5625 277.796875 308.980469 C 277.914062 308.398438 277.972656 307.808594 277.972656 307.214844 L 277.972656 290.878906 C 277.972656 290.285156 277.917969 289.695312 277.800781 289.113281 C 277.683594 288.527344 277.511719 287.960938 277.285156 287.414062 C 277.058594 286.863281 276.777344 286.339844 276.449219 285.84375 C 276.117188 285.351562 275.742188 284.894531 275.324219 284.472656 C 274.902344 284.050781 274.445312 283.675781 273.949219 283.34375 C 273.457031 283.015625 272.933594 282.734375 272.386719 282.507812 C 271.835938 282.28125 271.269531 282.109375 270.6875 281.992188 C 270.105469 281.875 269.515625 281.816406 268.921875 281.816406 L 254.617188 281.816406 C 257.492188 280.398438 260.417969 279.085938 263.386719 277.875 C 266.359375 276.667969 269.371094 275.566406 272.421875 274.574219 C 275.472656 273.582031 278.554688 272.703125 281.667969 271.933594 C 284.78125 271.164062 287.917969 270.507812 291.078125 269.964844 C 294.242188 269.417969 297.417969 268.988281 300.609375 268.675781 C 303.800781 268.359375 307 268.160156 310.207031 268.074219 C 313.414062 267.992188 316.617188 268.023438 319.820312 268.167969 C 323.023438 268.316406 326.21875 268.574219 329.40625 268.953125 C 332.589844 269.328125 335.757812 269.820312 338.90625 270.425781 C 342.058594 271.027344 345.183594 271.746094 348.28125 272.574219 C 351.378906 273.40625 354.441406 274.34375 357.472656 275.394531 C 360.503906 276.445312 363.492188 277.605469 366.441406 278.871094 C 369.390625 280.136719 372.289062 281.503906 375.136719 282.980469 C 377.984375 284.453125 380.777344 286.027344 383.515625 287.703125 C 386.25 289.378906 388.921875 291.152344 391.53125 293.019531 C 394.140625 294.886719 396.675781 296.847656 399.144531 298.898438 C 401.613281 300.949219 404.003906 303.085938 406.316406 305.308594 C 408.632812 307.53125 410.863281 309.835938 413.011719 312.21875 C 415.160156 314.601562 417.21875 317.0625 419.191406 319.59375 C 421.164062 322.125 423.042969 324.726562 424.828125 327.390625 C 426.613281 330.058594 428.300781 332.789062 429.886719 335.578125 C 431.476562 338.367188 432.964844 341.207031 434.347656 344.105469 C 435.734375 347 437.011719 349.941406 438.183594 352.929688 C 439.359375 355.917969 440.421875 358.945312 441.378906 362.011719 C 442.332031 365.074219 443.179688 368.171875 443.910156 371.296875 C 444.644531 374.421875 445.265625 377.570312 445.769531 380.738281 C 446.277344 383.910156 446.671875 387.09375 446.949219 390.292969 C 447.226562 393.492188 447.390625 396.695312 447.4375 399.90625 C 447.484375 403.117188 447.417969 406.324219 447.234375 409.53125 C 447.050781 412.734375 446.753906 415.929688 446.339844 419.113281 C 445.925781 422.296875 445.402344 425.460938 444.761719 428.609375 C 444.121094 431.753906 443.367188 434.875 442.503906 437.964844 C 431.628906 433.96875 421.1875 429.042969 411.183594 423.1875 C 409.515625 422.230469 407.78125 421.40625 405.984375 420.714844 C 404.191406 420.023438 402.351562 419.472656 400.472656 419.0625 C 398.59375 418.652344 396.691406 418.386719 394.769531 418.269531 C 392.851562 418.148438 390.933594 418.175781 389.015625 418.347656 C 387.097656 418.523438 385.207031 418.839844 383.339844 419.304688 C 381.472656 419.765625 379.648438 420.367188 377.875 421.109375 C 376.097656 421.851562 374.390625 422.722656 372.746094 423.726562 C 371.101562 424.730469 369.546875 425.851562 368.074219 427.09375 L 357.25 436.152344 C 346.804688 442.199219 335.65625 446.355469 323.804688 448.617188 C 319.609375 449.167969 315.570312 450.289062 311.691406 451.980469 C 307.808594 453.675781 304.242188 455.871094 300.980469 458.574219 C 299.539062 459.917969 298.503906 461.523438 297.875 463.390625 L 250.503906 448.703125 C 249.601562 448.421875 248.683594 448.230469 247.746094 448.125 C 246.808594 448.019531 245.867188 448.007812 244.925781 448.082031 C 243.988281 448.15625 243.0625 448.324219 242.152344 448.574219 C 241.242188 448.828125 240.367188 449.167969 239.523438 449.585938 C 238.679688 450.007812 237.882812 450.507812 237.132812 451.082031 C 236.382812 451.65625 235.695312 452.296875 235.070312 453.003906 C 234.441406 453.707031 233.890625 454.46875 233.40625 455.28125 C 232.925781 456.09375 232.527344 456.945312 232.207031 457.832031 C 231.890625 458.722656 231.660156 459.632812 231.515625 460.566406 C 231.371094 461.5 231.316406 462.4375 231.355469 463.382812 C 231.390625 464.328125 231.515625 465.257812 231.730469 466.179688 C 231.945312 467.097656 232.246094 467.988281 232.628906 468.851562 C 233.015625 469.714844 233.476562 470.53125 234.019531 471.304688 C 234.5625 472.078125 235.171875 472.792969 235.851562 473.449219 C 236.527344 474.105469 237.261719 474.691406 238.054688 475.207031 C 238.84375 475.722656 239.675781 476.15625 240.550781 476.511719 L 319.371094 508.6875 C 322.789062 510.074219 326.300781 511.164062 329.90625 511.945312 C 333.511719 512.730469 337.15625 513.203125 340.839844 513.359375 C 344.527344 513.519531 348.199219 513.359375 351.859375 512.886719 C 355.519531 512.410156 359.109375 511.628906 362.632812 510.539062 L 408.476562 496.277344 C 405.386719 499.410156 402.148438 502.382812 398.761719 505.195312 C 395.378906 508.007812 391.863281 510.648438 388.21875 513.109375 C 384.570312 515.574219 380.8125 517.847656 376.941406 519.941406 C 373.070312 522.03125 369.101562 523.921875 365.042969 525.621094 C 360.984375 527.316406 356.851562 528.808594 352.644531 530.09375 C 348.4375 531.378906 344.175781 532.453125 339.863281 533.316406 C 335.550781 534.179688 331.207031 534.828125 326.828125 535.257812 C 322.449219 535.691406 318.0625 535.90625 313.664062 535.902344 Z M 298.171875 471.753906 C 304.1875 485.921875 335.367188 481.332031 344.96875 478.554688 C 354.796875 476.027344 358.8125 471.164062 368.464844 470.871094 C 372.4375 470.832031 376.292969 471.496094 380.027344 472.871094 C 380.519531 473.046875 381.027344 473.125 381.550781 473.097656 C 382.070312 473.074219 382.570312 472.949219 383.042969 472.726562 C 383.515625 472.503906 383.929688 472.199219 384.28125 471.8125 C 384.636719 471.425781 384.902344 470.984375 385.078125 470.492188 C 386.957031 463.148438 372.886719 463.363281 368.351562 462.96875 C 356.738281 463.285156 353.238281 468.066406 342.753906 470.96875 C 333.953125 473.492188 325.011719 474.171875 315.933594 473.003906 C 312.3125 472.074219 306.492188 472.679688 305.207031 468.261719 C 305.023438 467.542969 305.039062 466.824219 305.257812 466.113281 C 305.476562 465.402344 305.867188 464.796875 306.425781 464.304688 C 313.019531 458.195312 321.585938 457.351562 330.117188 455.304688 C 340.128906 452.875 349.703125 449.285156 358.84375 444.527344 C 363.824219 441.011719 368.589844 437.222656 373.136719 433.160156 C 374.300781 432.175781 375.527344 431.289062 376.828125 430.492188 C 378.125 429.699219 379.472656 429.007812 380.875 428.417969 C 382.277344 427.828125 383.71875 427.351562 385.195312 426.984375 C 386.667969 426.613281 388.164062 426.359375 389.679688 426.21875 C 391.195312 426.082031 392.710938 426.058594 394.226562 426.148438 C 395.746094 426.242188 397.25 426.449219 398.734375 426.769531 C 400.222656 427.09375 401.675781 427.523438 403.097656 428.070312 C 404.515625 428.613281 405.886719 429.261719 407.210938 430.015625 C 417.726562 436.171875 428.707031 441.339844 440.152344 445.519531 C 437.554688 453.054688 434.316406 460.300781 430.429688 467.257812 C 426.542969 474.210938 422.070312 480.769531 417.011719 486.921875 C 409.582031 486.246094 368.109375 501.070312 360.292969 502.988281 C 357.199219 503.945312 354.050781 504.632812 350.84375 505.046875 C 347.632812 505.460938 344.414062 505.601562 341.179688 505.464844 C 337.949219 505.324219 334.75 504.914062 331.589844 504.226562 C 328.425781 503.539062 325.347656 502.585938 322.347656 501.367188 L 243.539062 469.199219 C 243.09375 469.011719 242.675781 468.785156 242.28125 468.511719 C 241.886719 468.238281 241.523438 467.925781 241.191406 467.578125 C 240.859375 467.230469 240.570312 466.851562 240.316406 466.445312 C 240.0625 466.035156 239.855469 465.605469 239.691406 465.152344 C 239.527344 464.703125 239.410156 464.238281 239.34375 463.761719 C 239.277344 463.285156 239.257812 462.808594 239.289062 462.328125 C 239.320312 461.847656 239.398438 461.378906 239.527344 460.914062 C 239.65625 460.453125 239.828125 460.007812 240.050781 459.578125 C 240.425781 458.871094 240.910156 458.246094 241.503906 457.710938 C 242.097656 457.171875 242.765625 456.75 243.507812 456.445312 C 244.25 456.140625 245.019531 455.972656 245.820312 455.941406 C 246.621094 455.90625 247.40625 456.011719 248.167969 456.253906 Z M 298.171875 471.753906 " fill-opacity="1" fill-rule="nonzero"/></g></svg>