<svg xmlns="http://www.w3.org/2000/svg" xmlns:xlink="http://www.w3.org/1999/xlink" width="794" zoomAndPan="magnify" viewBox="0 0 594.95996 842.24997" height="1123" preserveAspectRatio="xMidYMid meet" version="1.0"><defs><clipPath id="8520a77228"><path d="M 0.246094 0 L 594.675781 0 L 594.675781 841.5 L 0.246094 841.5 Z M 0.246094 0 " clip-rule="nonzero"/></clipPath><clipPath id="24f7d40ab3"><path d="M 132 216.128906 L 442.570312 216.128906 L 442.570312 590 L 132 590 Z M 132 216.128906 " clip-rule="nonzero"/></clipPath></defs><g clip-path="url(#8520a77228)"><path fill="#ffffff" d="M 0.246094 0 L 595.214844 0 L 595.214844 841.5 L 0.246094 841.5 Z M 0.246094 0 " fill-opacity="1" fill-rule="nonzero"/><path fill="#ffffff" d="M 0.246094 0 L 595.214844 0 L 595.214844 841.5 L 0.246094 841.5 Z M 0.246094 0 " fill-opacity="1" fill-rule="nonzero"/></g><g clip-path="url(#24f7d40ab3)"><path fill="#000000" d="M 337.402344 284.214844 L 312.011719 284.214844 L 312.011719 258.796875 C 312.011719 255.871094 309.644531 253.5 306.71875 253.5 L 267.980469 253.5 C 265.058594 253.5 262.6875 255.871094 262.6875 258.796875 L 262.6875 284.214844 L 237.296875 284.214844 C 234.375 284.214844 232.007812 286.585938 232.007812 289.511719 L 232.007812 328.289062 C 232.007812 331.214844 234.375 333.585938 237.296875 333.585938 L 262.6875 333.585938 L 262.6875 359 C 262.6875 361.925781 265.058594 364.300781 267.980469 364.300781 L 306.71875 364.300781 C 309.644531 364.300781 312.011719 361.925781 312.011719 359 L 312.011719 333.585938 L 337.402344 333.585938 C 340.324219 333.585938 342.695312 331.214844 342.695312 328.289062 L 342.695312 289.511719 C 342.695312 286.585938 340.324219 284.214844 337.402344 284.214844 Z M 332.109375 322.992188 L 306.71875 322.992188 C 303.796875 322.992188 301.429688 325.363281 301.429688 328.289062 L 301.429688 353.703125 L 273.273438 353.703125 L 273.273438 328.289062 C 273.273438 325.363281 270.902344 322.992188 267.980469 322.992188 L 242.589844 322.992188 L 242.589844 294.808594 L 267.980469 294.808594 C 270.902344 294.808594 273.273438 292.4375 273.273438 289.511719 L 273.273438 264.09375 L 301.429688 264.09375 L 301.429688 289.511719 C 301.429688 292.4375 303.796875 294.808594 306.71875 294.808594 L 332.109375 294.808594 Z M 434 298.917969 C 428.519531 293.429688 421.207031 290.410156 413.410156 290.410156 C 405.617188 290.410156 398.304688 293.429688 392.824219 298.917969 L 380.011719 311.742188 C 380.042969 310.792969 380.058594 309.847656 380.058594 308.902344 C 380.058594 257.730469 338.46875 216.097656 287.351562 216.097656 C 236.230469 216.097656 194.640625 257.730469 194.640625 308.902344 C 194.640625 360.070312 236.230469 401.703125 287.351562 401.703125 C 288.296875 401.703125 289.242188 401.683594 290.1875 401.652344 L 239.855469 452.035156 C 237.789062 454.105469 237.789062 457.457031 239.855469 459.527344 L 243.070312 462.746094 L 133.753906 572.171875 C 131.6875 574.242188 131.6875 577.59375 133.753906 579.664062 C 140.445312 586.363281 152.636719 589.996094 165.703125 589.996094 C 180.597656 589.996094 196.621094 585.269531 206.90625 574.976562 L 243.558594 538.289062 C 245.46875 536.378906 245.535156 534.585938 245.972656 522.914062 C 246.09375 519.75 246.222656 516.261719 246.390625 514 L 270.332031 490.035156 L 273.550781 493.253906 C 274.542969 494.246094 275.886719 494.804688 277.292969 494.804688 C 278.695312 494.804688 280.039062 494.246094 281.03125 493.253906 L 433.996094 340.136719 C 439.480469 334.648438 442.496094 327.332031 442.496094 319.527344 C 442.496094 311.722656 439.480469 304.402344 434 298.917969 Z M 287.351562 391.105469 C 242.066406 391.105469 205.226562 354.230469 205.226562 308.902344 C 205.226562 263.570312 242.066406 226.695312 287.351562 226.695312 C 332.632812 226.695312 369.476562 263.570312 369.476562 308.902344 C 369.476562 313.839844 369.03125 318.777344 368.164062 323.601562 L 302.039062 389.792969 C 297.21875 390.660156 292.285156 391.105469 287.351562 391.105469 Z M 237.570312 507.847656 C 236.753906 508.664062 236.226562 509.722656 236.070312 510.863281 C 235.746094 513.179688 235.578125 517.714844 235.398438 522.515625 C 235.285156 525.539062 235.125 529.828125 234.9375 531.933594 L 199.421875 567.484375 C 185.707031 581.214844 158.507812 581.84375 145.636719 575.257812 L 250.554688 470.234375 L 262.851562 482.542969 Z M 277.292969 482.015625 L 251.082031 455.78125 L 263.550781 443.300781 L 289.757812 469.535156 Z M 426.515625 332.644531 L 297.242188 462.046875 L 271.035156 435.808594 L 400.304688 306.410156 C 403.785156 302.925781 408.441406 301.003906 413.410156 301.003906 C 418.378906 301.003906 423.035156 302.925781 426.515625 306.410156 C 429.996094 309.894531 431.914062 314.550781 431.914062 319.527344 C 431.914062 324.5 429.996094 329.160156 426.515625 332.644531 Z M 416.292969 316.644531 C 418.359375 318.710938 418.359375 322.066406 416.292969 324.132812 L 363.167969 377.308594 C 362.136719 378.34375 360.78125 378.863281 359.425781 378.863281 C 358.070312 378.863281 356.71875 378.34375 355.683594 377.308594 C 353.617188 375.242188 353.617188 371.886719 355.683594 369.820312 L 408.808594 316.644531 C 410.875 314.574219 414.226562 314.574219 416.292969 316.644531 Z M 416.292969 316.644531 " fill-opacity="1" fill-rule="nonzero"/></g></svg>